<svg xmlns="http://www.w3.org/2000/svg" viewBox="0 0 32 32">
  <defs>
    <linearGradient id="bg" x1="0%" y1="0%" x2="100%" y2="100%">
      <stop offset="0%" stop-color="#ec4899"/>
      <stop offset="100%" stop-color="#f43f5e"/>
    </linearGradient>
  </defs>
  <rect width="32" height="32" rx="6" fill="url(#bg)"/>
  <g stroke="white" stroke-width="1.5" fill="none" stroke-linecap="round">
    <line x1="16" y1="6" x2="16" y2="26"/>
    <path d="M16 6 L20 10 L16 14 L12 10 Z"/>
    <path d="M16 11 L21.5 16 L16 21 L10.5 16 Z"/>
    <path d="M16 18 L20 22 L16 26 L12 22 Z"/>
    <path d="M10.5 16 Q7.5 13 10.5 10"/>
    <path d="M10.5 16 Q7.5 19 10.5 22"/>
    <path d="M21.5 16 Q24.5 13 21.5 10"/>
    <path d="M21.5 16 Q24.5 19 21.5 22"/>
    <circle cx="16" cy="6" r="1.2" fill="white"/>
    <circle cx="16" cy="16" r="1.5" fill="white"/>
    <circle cx="16" cy="26" r="1.2" fill="white"/>
  </g>
</svg>
